<?xml version="1.0" encoding="UTF-8"?>
<svg version="1.1" xmlns="http://www.w3.org/2000/svg" width="512" height="512">
<path d="M0 0 C10.47305077 4.02128072 20.39372781 9.09532931 30.39480591 14.15039062 C35.32650595 16.64288329 40.26458178 19.12266258 45.203125 21.6015625 C46.16066177 22.08240295 47.11819855 22.56324341 48.10475159 23.05865479 C54.88556882 26.45750842 61.69811004 29.77279743 68.5625 33 C81.22600649 38.976424 93.61450318 45.47106128 106 52 C107.72645752 52.90468018 107.72645752 52.90468018 109.48779297 53.82763672 C153.58826428 76.97093981 153.58826428 76.97093981 158 88.25 C158.52214565 90.20804619 159.03020764 92.17495257 159.375 94.171875 C159.58125 94.77515625 159.7875 95.3784375 160 96 C160.99 96.33 161.98 96.66 163 97 C163.04125 95.845 163.0825 94.69 163.125 93.5 C164.2235539 85.573725 169.42446871 81.16990167 175.5625 76.5 C191.82189255 65.0372306 210.43550468 56.05004046 228.26904297 47.33251953 C233.16791268 44.93689357 238.01988994 42.47210821 242.83482361 39.91290283 C256.9417371 32.41657255 271.23375369 25.28940632 285.52172852 18.14648438 C289.35129436 16.23175313 293.17803676 14.31144629 297.00417423 12.38987541 C299.9701 10.90137815 302.93781633 9.41647991 305.90606499 7.932621 C307.32014696 7.22499032 308.7335811 6.51606349 310.14634895 5.80581284 C312.10099 4.82362508 314.05806869 3.84647673 316.01586914 2.87060547 C317.68196983 2.03648636 317.68196983 2.03648636 319.38172913 1.18551636 C322 0 322 0 324 0 C324.70362442 69.42427641 324.70362442 69.42427641 312.3125 82.375 C311.54583008 83.19291016 311.54583008 83.19291016 310.76367188 84.02734375 C309.5152948 85.35739035 308.25850439 86.6795319 307 88 C308.55480772 91.53739322 310.69737035 94.18484692 313.1875 97.125 C332.44689248 120.45197618 339.61419141 143.73779462 337 174 C333.96089896 196.43753602 321.15444189 221.10079381 303.30859375 235.11328125 C299.38263204 238.32180833 298.30750308 242.14029013 297.78173828 247.02978516 C297.37768659 252.01451837 297.16469756 257.00228085 297 262 C297.6077124 261.67837891 298.2154248 261.35675781 298.84155273 261.02539062 C319.36320929 250.18565718 319.36320929 250.18565718 329.75 245.25 C330.44536865 244.91548828 331.1407373 244.58097656 331.85717773 244.23632812 C334.75954581 242.87738423 336.75426392 242 340 242 C340.7470677 246.00652874 341.12962005 249.80145945 341.14526367 253.875 C341.15483345 255.57837524 341.15483345 255.57837524 341.16459656 257.31616211 C341.16626579 259.13966187 341.16626579 259.13966187 341.16796875 261 C341.17129715 262.26787354 341.17462555 263.53574707 341.17805481 264.84204102 C341.18311264 267.52510081 341.18589685 270.20805931 341.18530273 272.89111328 C341.18520183 276.28852942 341.1987875 279.6857332 341.21607494 283.08309937 C341.23004475 286.36789097 341.22928871 289.65268281 341.23046875 292.9375 C341.23765427 294.13697266 341.24483978 295.33644531 341.25224304 296.57226562 C341.20393987 314.79687109 338.81240029 325.98519213 326 339 C325.23558594 339.77730469 324.47117187 340.55460937 323.68359375 341.35546875 C318.04806107 346.74961123 312.11271196 350.49800497 305.296875 354.17578125 C298.96193507 357.22973657 298.96193507 357.22973657 294.96875 362.59375 C294.8140625 363.5528125 294.659375 364.511875 294.5 365.5 C291.19262837 381.16249554 280.87232685 395.59886241 268 405 C253.61244391 413.80015567 239.30503181 416.15113577 222.77319336 417.22094727 C202.39292005 418.62307704 184.66063299 423.95085013 168.07617188 436.125 C162.67614946 439.9897694 162.67614946 439.9897694 159.16015625 440.04296875 C156.80381332 438.90527696 155.6999392 437.89798583 154.0625 435.875 C139.61487809 420.77769916 114.2914201 419.32505897 94.80004883 416.87451172 C74.84963944 414.31325497 55.92087695 409.66651073 42 394 C35.98750249 386.21349704 32.53359793 377.90312559 29.52050781 368.62329102 C26.48309324 359.54422756 21.64469946 355.36712975 13.3125 351.125 C-0.75924669 343.6138445 -10.97936955 335.57123066 -16 320 C-18.82244163 309.96089624 -19.15162563 299.89076137 -19.1328125 289.51953125 C-19.13376923 288.34790939 -19.13472595 287.17628754 -19.13571167 285.96916199 C-19.13638899 283.50588934 -19.13456609 281.04261487 -19.13037109 278.5793457 C-19.12500203 274.81392415 -19.13033877 271.04862108 -19.13671875 267.28320312 C-19.13605817 264.88281224 -19.13477743 262.48242142 -19.1328125 260.08203125 C-19.13483673 258.96004837 -19.13686096 257.83806549 -19.13894653 256.68208313 C-19.12395777 251.68155853 -19.07569999 246.91115262 -18 242 C-13.92146777 242.62318062 -10.71014273 243.96067984 -7.02734375 245.80078125 C-5.87943359 246.36603516 -4.73152344 246.93128906 -3.54882812 247.51367188 C-1.16700766 248.69796863 1.21234858 249.88710612 3.59179688 251.07617188 C10.91734416 254.67976979 18.17694857 257.65532101 26 260 C27.69258495 251.939411 27.56014148 246.72975291 23.6171875 239.4453125 C21.44925897 236.167237 18.8965242 233.59884574 16.0390625 230.91796875 C12.75748619 227.83127533 9.85702003 224.47865736 7 221 C6.36191406 220.22398437 5.72382812 219.44796875 5.06640625 218.6484375 C-10.52222237 198.53211753 -16.57771681 172.80305198 -13.5390625 147.6796875 C-10.64197807 127.70517348 -2.04953566 110.32497991 11 95 C12.33789218 93.33699066 13.67240559 91.67124164 15 90 C13.49519888 86.61807584 11.50640394 84.07173901 9.125 81.25 C-4.19472964 64.6244679 -2.04810462 41.21906877 -2.125 20.8125 C-2.12967285 19.97638184 -2.1343457 19.14026367 -2.13916016 18.27880859 C-2.09718028 2.09718028 -2.09718028 2.09718028 0 0 Z M31 116 C30.26136719 116.70640625 29.52273437 117.4128125 28.76171875 118.140625 C17.56749428 129.5304767 12.12907515 145.23551076 11.87890625 161 C12.16013951 179.7397385 19.7795853 196.85311272 32.91796875 210.16796875 C47.27402993 223.85522605 64.74116442 227.49000813 84.07421875 227.20703125 C101.36529506 226.66198282 116.63755178 220.20958951 129 208 C141.6399269 193.89927898 149.06178382 176.0446841 148.33984375 157.01171875 C147.13081337 139.05697215 137.48479445 124.21417029 125 112 C124.29359375 111.26136719 123.5871875 110.52273437 122.859375 109.76171875 C111.87383208 98.96485882 95.91047278 92.8322614 80.6875 92.5625 C60.77261842 92.73817433 44.55845521 102.14113588 31 116 Z M189.75 118.625 C178.47542705 133.65004691 174.04487247 152.23802935 176.50390625 170.8046875 C179.40690277 189.32067975 187.65271676 204.97205134 203.0078125 216.19921875 C220.33766224 227.49494008 242.15174649 230.01929032 262.3125 225.875 C273.15826401 222.76799068 281.01808964 216.76905942 289 209 C290.06734375 208.02546875 290.06734375 208.02546875 291.15625 207.03125 C302.19958162 196.66750802 309.6090236 182.49937913 310.3359375 167.2734375 C310.71645836 146.71491456 305.19448246 129.40088513 291 114 C278.09930609 100.95102225 262.18609952 93.03945698 243.625 92.6875 C222.73659295 92.6875 203.30990717 102.96499248 189.75 118.625 Z M149.125 191.65625 C145.13896576 196.17886578 143.51303311 199.88473318 143.59375 206.08984375 C145.25553631 217.99398608 152.18867992 233.91975015 161 242 C164.93773376 238.33957143 167.77422163 234.62270005 170.5 230 C170.88655762 229.34499512 171.27311523 228.68999023 171.67138672 228.01513672 C178.86823789 215.78774028 178.86823789 215.78774028 179.76953125 202.0625 C177.77391821 196.71385185 174.34934433 192.55831716 169.5 189.5625 C162.2612323 186.33090728 155.35529185 186.15282554 149.125 191.65625 Z M-2 270 C-7.61814763 282.55689571 -3.278328 302.57280036 0.625 315.375 C5.81952758 327.36237134 20.17698785 333.02978978 31 339 C31.84224121 339.46921875 32.68448242 339.9384375 33.55224609 340.421875 C58.55737887 354.3470895 84.16169581 367.13503139 109.74119568 379.96098709 C111.66421341 380.9258165 113.58653189 381.89202565 115.50866699 382.85861206 C123.65050969 386.95098945 131.81412562 390.99620891 140 395 C140.93459045 395.46255188 141.86918091 395.92510376 142.83209229 396.40167236 C145.27985275 397.60547872 147.73934613 398.77911912 150.20703125 399.94140625 C150.88158859 400.27752426 151.55614594 400.61364227 152.25114441 400.95994568 C158.1755268 403.67072541 163.16861051 403.37901892 169.17808533 401.21604919 C171.44522841 400.22681967 173.64367424 399.15010212 175.84765625 398.02734375 C176.6626207 397.62600723 177.47758514 397.22467072 178.31724548 396.81117249 C180.90558697 395.53275614 183.48398232 394.23559684 186.0625 392.9375 C187.76435006 392.09314238 189.46682031 391.25003357 191.16992188 390.40820312 C196.12184281 387.95577261 201.06156482 385.47944318 206 383 C208.56846955 381.71376138 211.13773886 380.42912524 213.70703125 379.14453125 C214.65140297 378.67191109 214.65140297 378.67191109 215.61485291 378.18974304 C220.6059182 375.69304165 225.60284138 373.20822797 230.6007843 370.72532654 C234.85537603 368.61087643 239.10818965 366.4928635 243.36083984 364.37451172 C245.52548083 363.29721021 247.69083871 362.22134787 249.85693359 361.14697266 C292.86802467 343.18303206 292.86802467 343.18303206 323.6875 311.3125 C327.26732363 299.55581148 327.89414874 281.68244623 324 270 C317.00537515 272.1522955 310.62208691 274.95464401 304.07421875 278.20703125 C303.02946381 278.72036514 301.98470886 279.23369904 300.90829468 279.7625885 C297.49845006 281.44005336 294.09286028 283.1259526 290.6875 284.8125 C288.3125717 285.98419705 285.93748852 287.15558022 283.56225586 288.32666016 C277.52765799 291.3037833 271.49782183 294.2904418 265.46936035 297.27996826 C262.16884743 298.9162892 258.86730403 300.55051038 255.56542969 302.18408203 C226.58842213 316.4596779 226.58842213 316.4596779 198.15966797 331.78564453 C195.96185306 333.02144957 193.75082604 334.23013419 191.53515625 335.43359375 C174.63832138 344.33853501 174.63832138 344.33853501 163 359 C163 359.66 163 360.32 163 361 C162.34 361 161.68 361 161 361 C160.59007812 360.13955078 160.59007812 360.13955078 160.171875 359.26171875 C155.09531804 349.46396382 147.26753299 344.34368764 138 339 C137.35192383 338.62294922 136.70384766 338.24589844 136.03613281 337.85742188 C112.06630972 324.00298134 87.01948658 311.91534736 62.2644043 299.53955078 C59.2027899 298.00878446 56.14262511 296.47517813 53.08374023 294.93896484 C31.67591527 284.17400958 31.67591527 284.17400958 10.01953125 273.921875 C9.12844162 273.51100647 8.23735199 273.10013794 7.31925964 272.67681885 C6.51627945 272.31521667 5.71329926 271.9536145 4.88598633 271.58105469 C3.85819817 271.11732452 3.85819817 271.11732452 2.80964661 270.64422607 C0.84910773 269.8323112 0.84910773 269.8323112 -2 270 Z " fill="#000000" transform="translate(95,36)"/>
<path d="M0 0 C5.1921882 3.0097358 7.60862187 6.85967879 9.57421875 12.4921875 C11.03576495 20.71927819 11.55308108 30.00153185 7.453125 37.55859375 C3.01907017 43.37436539 -3.63609539 46.22895888 -10.42578125 48.4921875 C-18.20487446 49.46258563 -25.10716513 47.59928345 -31.47265625 43.01953125 C-37.06508892 37.96483249 -39.80153933 31.95021709 -40.83984375 24.53515625 C-41.23928342 16.34664305 -39.27700701 9.8190991 -33.78125 3.64453125 C-23.73396897 -5.58626645 -11.95654095 -5.53283071 0 0 Z " fill="#000000" transform="translate(352.42578125,200.5078125)"/>
<path d="M0 0 C6.18131981 5.95923646 7.91336399 10.67721568 8.1875 19.3125 C7.91231558 27.9808093 6.18515759 32.68480587 -0.0625 38.625 C-7.01829947 44.21516544 -13.28581634 45.46566444 -22.1953125 45.21875 C-29.71759218 44.23840277 -34.08191999 39.39475043 -38.8671875 33.875 C-43.53094092 27.21969782 -42.98191609 19.58929679 -42.3125 11.8125 C-40.39979797 4.97846732 -35.80874882 0.20447325 -29.8125 -3.4375 C-19.79565796 -8.44592102 -8.64120668 -7.02198242 0 0 Z " fill="#000000" transform="translate(192.3125,203.1875)"/>
</svg>
